<?xml version="1.0" encoding="utf-8"?>
<!-- Generator: Adobe Illustrator 26.0.3, SVG Export Plug-In . SVG Version: 6.00 Build 0)  -->
<svg version="1.1" id="Layer_1" xmlns="http://www.w3.org/2000/svg" xmlns:xlink="http://www.w3.org/1999/xlink" x="0px" y="0px"
	 viewBox="0 0 360 360" style="enable-background:new 0 0 360 360;" xml:space="preserve">
<style type="text/css">
	.st0{fill:#F0F0F0;}
</style>
<g>
	<g>
		<g>
			<path class="st0" d="M268.55,176.15c0,9.21-7.46,16.68-16.68,16.68h-62.99c-15.43,0-27.94-12.51-27.94-27.95
				c0-15.43,12.51-27.94,27.94-27.94h7.68c7.15,0,13.25,4.5,15.62,10.83h-23.3c-9.45,0-17.11,7.66-17.11,17.11
				c0,9.46,7.66,17.11,17.11,17.11h62.99c3.23,0,5.85-2.61,5.85-5.84c0-3.24-2.62-5.85-5.85-5.85h-21.53
				c-7.15,0-13.25-4.51-15.62-10.83h37.15C261.09,159.46,268.55,166.93,268.55,176.15z"/>
			<path class="st0" d="M265.23,136.94c-1.05,6.15-6.41,10.83-12.85,10.83h-37.65c2.37-6.33,8.47-10.83,15.62-10.83H265.23z"/>
			<path class="st0" d="M157.5,156.36v36.46h-10.83v-36.46c0-4.75-3.86-8.6-8.6-8.6c-4.75,0-8.6,3.86-8.6,8.6v36.46h-10.83v-36.46
				c0-4.75-3.86-8.6-8.6-8.6c-4.75,0-8.6,3.86-8.6,8.6v36.46H90.62v-36.46c0-10.73,8.69-19.43,19.43-19.43
				c5.51,0,10.48,2.3,14.01,5.98c3.53-3.68,8.5-5.98,14.01-5.98C148.8,136.94,157.5,145.64,157.5,156.36z"/>
		</g>
		<g>
			<path class="st0" d="M146.4,216.06h4.74c-0.05,1.34-0.55,2.44-1.51,3.29c-0.96,0.87-2.14,1.31-3.54,1.31
				c-1.61,0-2.9-0.56-3.88-1.69c-0.96-1.11-1.44-2.63-1.44-4.56c0-1.92,0.48-3.44,1.44-4.56c0.95-1.13,2.23-1.69,3.83-1.69
				c1.2,0,2.23,0.32,3.08,0.95c0.85,0.63,1.39,1.49,1.61,2.57h2.48c-0.26-1.71-1.02-3.09-2.3-4.13c-1.29-1.02-2.92-1.53-4.89-1.53
				c-2.36,0-4.24,0.77-5.64,2.3c-1.41,1.52-2.12,3.55-2.12,6.09c0,2.51,0.7,4.53,2.1,6.07c1.37,1.55,3.21,2.32,5.53,2.32
				c2.28,0,4.03-0.83,5.23-2.5l0.43,2.14h1.85v-8.43h-6.99V216.06z"/>
			<path class="st0" d="M180.59,206.03c-2.38,0-4.27,0.77-5.68,2.3c-1.44,1.56-2.17,3.59-2.17,6.09c0,2.51,0.72,4.53,2.17,6.07
				c1.41,1.55,3.31,2.32,5.68,2.32c2.34,0,4.24-0.77,5.68-2.32c1.43-1.55,2.14-3.57,2.14-6.07c0-2.49-0.71-4.52-2.14-6.09
				C184.83,206.79,182.93,206.03,180.59,206.03z M184.47,218.95c-0.96,1.13-2.25,1.69-3.88,1.69c-1.62,0-2.92-0.56-3.88-1.69
				c-0.98-1.11-1.47-2.62-1.47-4.53c0-1.89,0.49-3.41,1.47-4.56c0.98-1.11,2.27-1.67,3.88-1.67c1.61,0,2.9,0.56,3.88,1.67
				c0.96,1.11,1.44,2.63,1.44,4.56C185.91,216.34,185.43,217.85,184.47,218.95z"/>
			<path class="st0" d="M202.24,216.47c0,1.38-0.35,2.43-1.05,3.13c-0.7,0.71-1.71,1.06-3.03,1.06c-1.32,0-2.33-0.35-3.03-1.06
				c-0.7-0.71-1.05-1.75-1.05-3.13v-10.08h-2.41v10.06c0,2.01,0.57,3.57,1.71,4.68c1.14,1.11,2.74,1.66,4.78,1.66
				c2.04,0,3.64-0.55,4.78-1.66c1.14-1.1,1.71-2.66,1.71-4.68v-10.06h-2.41V216.47z"/>
			<path class="st0" d="M219.47,207.75c-0.96-0.91-2.32-1.36-4.06-1.36h-6.83v16.06h2.41v-5.93h4.42c1.74,0,3.1-0.45,4.06-1.36
				c0.96-0.91,1.44-2.14,1.44-3.69C220.91,209.9,220.43,208.66,219.47,207.75z M217.66,213.64c-0.53,0.5-1.29,0.76-2.3,0.76h-4.38
				v-5.89h4.38c1.01,0,1.77,0.26,2.3,0.77c0.53,0.51,0.79,1.24,0.79,2.19C218.45,212.41,218.19,213.13,217.66,213.64z"/>
			<path class="st0" d="M168.38,214.73c0.94-0.75,1.43-1.82,1.47-3.61c-0.04-1.79-0.53-2.8-1.47-3.55
				c-0.98-0.78-2.33-1.18-4.05-1.18h-7.01v16.06h2.41v-6.54h4.25l3.5,6.54h2.73l-3.65-6.82
				C167.26,215.43,167.87,215.13,168.38,214.73z M159.73,208.47h4.47c1.02,0,1.81,0.21,2.36,0.65c0.55,0.44,0.82,1.15,0.82,2
				c0,0.85-0.27,1.62-0.82,2.06c-0.54,0.44-1.33,0.65-2.36,0.65h-4.47V208.47z"/>
		</g>
	</g>
</g>
</svg>
