<svg xmlns="http://www.w3.org/2000/svg" width="75.773" height="36.567" viewBox="0 0 75.773 36.567"><g transform="translate(-40 -27.899)"><g transform="translate(-7546.749 -0.5)"><path d="M7662.522,45.1a7.1,7.1,0,0,1-7.1,7.1H7628.6a11.9,11.9,0,0,1,0-23.8h3.27a7.1,7.1,0,0,1,6.652,4.611H7628.6a7.287,7.287,0,1,0,0,14.574h26.826a2.49,2.49,0,1,0,0-4.979h-9.168a7.106,7.106,0,0,1-6.652-4.613h15.82A7.1,7.1,0,0,1,7662.522,45.1Z" fill="#f0f0f0"/><path d="M7661.108,28.4a5.558,5.558,0,0,1-5.473,4.611H7639.6a7.1,7.1,0,0,1,6.652-4.611Z" fill="#f0f0f0"/><path d="M7615.231,36.672V52.2h-4.61V36.672a3.663,3.663,0,0,0-7.326,0V52.2h-4.61V36.672a3.663,3.663,0,0,0-7.326,0V52.2h-4.61V36.672a512.682,512.682,0,0,0,20.209-8.273A8.274,8.274,0,0,1,7615.231,36.672Z" fill="#f0f0f0"/></g><g transform="translate(-7546.749 -0.5)"><path d="M7610.5,62.1h2.017a1.885,1.885,0,0,1-.644,1.4,2.165,2.165,0,0,1-1.508.557,2.081,2.081,0,0,1-1.652-.72,3.373,3.373,0,0,1,0-3.88,2.025,2.025,0,0,1,1.633-.721,2.138,2.138,0,0,1,1.311.4,1.764,1.764,0,0,1,.687,1.095h1.056a2.686,2.686,0,0,0-.98-1.758,3.256,3.256,0,0,0-2.084-.653,3.088,3.088,0,0,0-2.4.98,4.178,4.178,0,0,0-.01,5.176,2.98,2.98,0,0,0,2.353.989,2.576,2.576,0,0,0,2.228-1.066l.182.913h.788V61.221H7610.5Z" fill="#f0f0f0"/><path d="M7625.063,57.821a3.13,3.13,0,0,0-2.42.98,3.669,3.669,0,0,0-.922,2.593,3.612,3.612,0,0,0,.922,2.583,3.112,3.112,0,0,0,2.42.989,3.153,3.153,0,0,0,2.42-.989,3.659,3.659,0,0,0,.912-2.583,3.7,3.7,0,0,0-.912-2.593A3.171,3.171,0,0,0,7625.063,57.821Zm1.652,5.5a2.255,2.255,0,0,1-3.3,0,2.823,2.823,0,0,1-.624-1.93,2.884,2.884,0,0,1,.624-1.94,2.274,2.274,0,0,1,3.3,0,2.869,2.869,0,0,1,.614,1.94A2.829,2.829,0,0,1,7626.715,63.324Z" fill="#f0f0f0"/><path d="M7634.282,62.268a1.826,1.826,0,0,1-.446,1.335,2.076,2.076,0,0,1-2.584,0,1.826,1.826,0,0,1-.446-1.335V57.975h-1.028v4.283a2.644,2.644,0,0,0,.73,1.993,3.289,3.289,0,0,0,4.072,0,2.647,2.647,0,0,0,.73-1.993V57.975h-1.028Z" fill="#f0f0f0"/><path d="M7641.619,58.556a2.414,2.414,0,0,0-1.728-.581h-2.91v6.838h1.027V62.287h1.883a2.418,2.418,0,0,0,1.728-.581,2.325,2.325,0,0,0,0-3.15Zm-.768,2.506a1.362,1.362,0,0,1-.979.322h-1.864V58.878h1.864a1.354,1.354,0,0,1,.979.326,1.24,1.24,0,0,1,.336.932A1.221,1.221,0,0,1,7640.851,61.062Z" fill="#f0f0f0"/><path d="M7619.862,61.526a1.831,1.831,0,0,0,.624-1.536,1.779,1.779,0,0,0-.624-1.512,2.689,2.689,0,0,0-1.723-.5h-2.985v6.838h1.024V62.028h1.808l1.49,2.786h1.161l-1.553-2.905A2.163,2.163,0,0,0,7619.862,61.526Zm-3.684-2.666h1.9a1.574,1.574,0,0,1,1,.277,1.048,1.048,0,0,1,.351.853,1.1,1.1,0,0,1-.351.876,1.574,1.574,0,0,1-1,.278h-1.9Z" fill="#f0f0f0"/></g></g></svg>