<svg xmlns="http://www.w3.org/2000/svg" width="25.127" height="21.52" viewBox="0 0 25.127 21.52">
  <g id="Group_2548" data-name="Group 2548" transform="translate(-4231.095 -1302.748)">
    <g id="Group_2544" data-name="Group 2544">
      <g id="Group_2542" data-name="Group 2542">
        <path id="Path_1395" data-name="Path 1395" d="M4241.828,1302.748h-.042a10.765,10.765,0,0,0-10.691,10.835,10.733,10.733,0,0,0,18.364,7.5,10.58,10.58,0,0,0,3.132-7.559A10.818,10.818,0,0,0,4241.828,1302.748Zm3.347,20a9.829,9.829,0,0,1-6.676,0,.45.45,0,0,1-.316-.454v-1.521h.023a1.275,1.275,0,0,0,0-.137,9.855,9.855,0,0,1,.017-1.015,3.653,3.653,0,0,1,7.231-.143,3.505,3.505,0,0,1,.048.561v1.146c0,.363,0,.733.006,1.1A.455.455,0,0,1,4245.175,1322.747Zm1.706-.83-.447.269v-.633c0-.059,0-.119-.006-.179v-.733c0-.364,0-.746-.036-1.1a4.582,4.582,0,0,0-9.062-.3,4.965,4.965,0,0,0-.072.853l-.006.1c-.006.346-.006.68-.006,1.02v1l-.447-.281a9.529,9.529,0,0,1-2.8-2.535,9.653,9.653,0,0,1-1.957-6.235,9.809,9.809,0,1,1,14.844,8.758Z"/>
      </g>
      <g id="Group_2543" data-name="Group 2543">
        <path id="Path_1396" data-name="Path 1396" d="M4241.81,1307.616a3.248,3.248,0,0,0-2.309.973,3.314,3.314,0,0,0,0,4.7,3.253,3.253,0,0,0,2.327.967,3.321,3.321,0,1,0-.018-6.641Zm1.712,5.012a2.352,2.352,0,0,1-1.67.692,2.383,2.383,0,1,1-.006-4.767,2.383,2.383,0,0,1,2.38,2.393A2.384,2.384,0,0,1,4243.522,1312.628Z"/>
      </g>
    </g>
    <g id="Group_2547" data-name="Group 2547">
      <g id="Group_2545" data-name="Group 2545">
        <path id="Path_1397" data-name="Path 1397" d="M4253.469,1303v4.655c-.085-.035-.17-.07-.25-.109a3.931,3.931,0,0,1-2.248-3.537,4.092,4.092,0,0,1,2.248-1C4253.3,1303,4253.384,1303,4253.469,1303Z"/>
        <path id="Path_1398" data-name="Path 1398" d="M4253.719,1303.238v-.48c-.085-.005-.165-.01-.25-.01s-.165.005-.25.01a4.361,4.361,0,0,0-2.4,1.054l-.095.075v.12a4.143,4.143,0,0,0,2.5,3.806,1.421,1.421,0,0,0,.155.07l.1.04.095-.04a1.473,1.473,0,0,0,.155-.07v-.5a2.509,2.509,0,0,1-.25.145V1303.2A2.335,2.335,0,0,1,4253.719,1303.238Zm-.5.019v4.007a3.668,3.668,0,0,1-2-3.137A3.831,3.831,0,0,1,4253.219,1303.257Z"/>
      </g>
      <g id="Group_2546" data-name="Group 2546">
        <path id="Path_1399" data-name="Path 1399" d="M4256.127,1303.812a4.363,4.363,0,0,0-2.408-1.054c-.085-.005-.165-.01-.25-.01s-.165.005-.25.01v5.055a1.421,1.421,0,0,0,.155.07l.1.04.095-.04a1.473,1.473,0,0,0,.155-.07,4.145,4.145,0,0,0,2.5-3.806v-.12Zm-2.408,3.5a2.509,2.509,0,0,1-.25.145V1303.2a2.335,2.335,0,0,1,.25.035,4.846,4.846,0,0,1,2,.889A4.193,4.193,0,0,1,4253.719,1307.314Z"/>
      </g>
    </g>
  </g>
</svg>
